<mxfile host="app.diagrams.net" modified="2023-10-16T07:10:12.485Z" agent="Mozilla/5.0 (Windows NT 10.0; Win64; x64) AppleWebKit/537.36 (KHTML, like Gecko) Chrome/117.0.0.0 Safari/537.36 Edg/117.0.2045.60" etag="Znrqv3yq5-UmEVm1WyJy" version="22.0.4" type="device">
  <diagram name="Страница — 1" id="mSSjmW0eZhx4DqgH79iw">
    <mxGraphModel dx="958" dy="1738" grid="1" gridSize="10" guides="1" tooltips="1" connect="1" arrows="1" fold="1" page="1" pageScale="1" pageWidth="827" pageHeight="1169" math="0" shadow="0">
      <root>
        <mxCell id="0" />
        <mxCell id="1" parent="0" />
        <mxCell id="ftuu0GVkoSplPSDnn50m-5" value="" style="edgeStyle=orthogonalEdgeStyle;rounded=0;orthogonalLoop=1;jettySize=auto;html=1;" parent="1" source="ftuu0GVkoSplPSDnn50m-1" target="ftuu0GVkoSplPSDnn50m-2" edge="1">
          <mxGeometry relative="1" as="geometry" />
        </mxCell>
        <mxCell id="ftuu0GVkoSplPSDnn50m-1" value="int lenE(double e)" style="strokeWidth=1;html=1;shape=mxgraph.flowchart.terminator;whiteSpace=wrap;" parent="1" vertex="1">
          <mxGeometry x="370" y="10" width="100" height="60" as="geometry" />
        </mxCell>
        <mxCell id="ftuu0GVkoSplPSDnn50m-6" value="" style="edgeStyle=orthogonalEdgeStyle;rounded=0;orthogonalLoop=1;jettySize=auto;html=1;" parent="1" source="ftuu0GVkoSplPSDnn50m-2" target="ftuu0GVkoSplPSDnn50m-3" edge="1">
          <mxGeometry relative="1" as="geometry" />
        </mxCell>
        <mxCell id="ftuu0GVkoSplPSDnn50m-2" value="int c = 0" style="rounded=0;whiteSpace=wrap;html=1;" parent="1" vertex="1">
          <mxGeometry x="360" y="130" width="120" height="60" as="geometry" />
        </mxCell>
        <mxCell id="ftuu0GVkoSplPSDnn50m-7" value="" style="edgeStyle=orthogonalEdgeStyle;rounded=0;orthogonalLoop=1;jettySize=auto;html=1;" parent="1" source="ftuu0GVkoSplPSDnn50m-3" target="ftuu0GVkoSplPSDnn50m-4" edge="1">
          <mxGeometry relative="1" as="geometry" />
        </mxCell>
        <mxCell id="ftuu0GVkoSplPSDnn50m-3" value="e-(int)e&amp;gt;0.01&lt;br&gt;||e&amp;lt;0.99?" style="strokeWidth=1;html=1;shape=mxgraph.flowchart.decision;whiteSpace=wrap;" parent="1" vertex="1">
          <mxGeometry x="370" y="250" width="100" height="60" as="geometry" />
        </mxCell>
        <mxCell id="ftuu0GVkoSplPSDnn50m-4" value="e *= 10&lt;br&gt;c += 1" style="rounded=0;whiteSpace=wrap;html=1;" parent="1" vertex="1">
          <mxGeometry x="360" y="370" width="120" height="60" as="geometry" />
        </mxCell>
        <mxCell id="ftuu0GVkoSplPSDnn50m-8" value="" style="endArrow=none;html=1;rounded=0;exitX=0.5;exitY=1;exitDx=0;exitDy=0;" parent="1" source="ftuu0GVkoSplPSDnn50m-4" edge="1">
          <mxGeometry width="50" height="50" relative="1" as="geometry">
            <mxPoint x="390" y="380" as="sourcePoint" />
            <mxPoint x="420" y="220" as="targetPoint" />
            <Array as="points">
              <mxPoint x="420" y="460" />
              <mxPoint x="500" y="460" />
              <mxPoint x="500" y="220" />
            </Array>
          </mxGeometry>
        </mxCell>
        <mxCell id="ftuu0GVkoSplPSDnn50m-9" value="return c" style="strokeWidth=1;html=1;shape=mxgraph.flowchart.terminator;whiteSpace=wrap;" parent="1" vertex="1">
          <mxGeometry x="210" y="370" width="100" height="60" as="geometry" />
        </mxCell>
        <mxCell id="ftuu0GVkoSplPSDnn50m-10" style="edgeStyle=orthogonalEdgeStyle;rounded=0;orthogonalLoop=1;jettySize=auto;html=1;entryX=0.5;entryY=0;entryDx=0;entryDy=0;entryPerimeter=0;" parent="1" source="ftuu0GVkoSplPSDnn50m-3" target="ftuu0GVkoSplPSDnn50m-9" edge="1">
          <mxGeometry relative="1" as="geometry" />
        </mxCell>
        <mxCell id="ftuu0GVkoSplPSDnn50m-13" value="нет" style="text;strokeColor=none;fillColor=none;html=1;fontSize=16;fontStyle=1;verticalAlign=middle;align=center;rotation=0;" parent="1" vertex="1">
          <mxGeometry x="340" y="250" width="50" height="20" as="geometry" />
        </mxCell>
        <mxCell id="ftuu0GVkoSplPSDnn50m-14" value="2" style="text;strokeColor=none;fillColor=none;html=1;fontSize=24;fontStyle=1;verticalAlign=middle;align=center;" parent="1" vertex="1">
          <mxGeometry x="370" y="-40" width="100" height="40" as="geometry" />
        </mxCell>
        <mxCell id="ftuu0GVkoSplPSDnn50m-15" value="1" style="text;strokeColor=none;fillColor=none;html=1;fontSize=24;fontStyle=1;verticalAlign=middle;align=center;" parent="1" vertex="1">
          <mxGeometry x="210" y="-40" width="100" height="40" as="geometry" />
        </mxCell>
        <mxCell id="ftuu0GVkoSplPSDnn50m-16" value="A" style="text;strokeColor=none;fillColor=none;html=1;fontSize=24;fontStyle=1;verticalAlign=middle;align=center;" parent="1" vertex="1">
          <mxGeometry x="130" y="20" width="100" height="40" as="geometry" />
        </mxCell>
        <mxCell id="ftuu0GVkoSplPSDnn50m-17" value="B" style="text;strokeColor=none;fillColor=none;html=1;fontSize=24;fontStyle=1;verticalAlign=middle;align=center;" parent="1" vertex="1">
          <mxGeometry x="130" y="140" width="100" height="40" as="geometry" />
        </mxCell>
        <mxCell id="ftuu0GVkoSplPSDnn50m-18" value="C" style="text;strokeColor=none;fillColor=none;html=1;fontSize=24;fontStyle=1;verticalAlign=middle;align=center;" parent="1" vertex="1">
          <mxGeometry x="130" y="260" width="100" height="40" as="geometry" />
        </mxCell>
        <mxCell id="ftuu0GVkoSplPSDnn50m-19" value="D" style="text;strokeColor=none;fillColor=none;html=1;fontSize=24;fontStyle=1;verticalAlign=middle;align=center;" parent="1" vertex="1">
          <mxGeometry x="130" y="380" width="100" height="40" as="geometry" />
        </mxCell>
        <mxCell id="ftuu0GVkoSplPSDnn50m-21" value="да" style="text;strokeColor=none;fillColor=none;html=1;fontSize=16;fontStyle=1;verticalAlign=middle;align=center;rotation=0;" parent="1" vertex="1">
          <mxGeometry x="420" y="300" width="50" height="20" as="geometry" />
        </mxCell>
      </root>
    </mxGraphModel>
  </diagram>
</mxfile>
